<?xml version="1.0" encoding="UTF-8" standalone="no"?>


<svg version="1.1" id="svg1" width="698.93335" height="187.21333" viewBox="0 0 698.93335 187.21333" xmlns:sodipodi-0.dtd="http://sodipodi.sourceforge.net/DTD/sodipodi-0.dtd" xmlns:sodipodi-0.dtd="http://sodipodi.sourceforge.net/DTD/sodipodi-0.dtd" sodipodi-0.dtd:docname="Hygiena_Logo_Black.eps" xmlns:inkscape="http://www.inkscape.org/namespaces/inkscape" xmlns:sodipodi="http://sodipodi.sourceforge.net/DTD/sodipodi-0.dtd" xmlns="http://www.w3.org/2000/svg" xmlns:svg="http://www.w3.org/2000/svg">
  <defs id="defs1"></defs>
  <namedview id="namedview1" pagecolor="#ffffff" bordercolor="#000000" borderopacity="0.25" xmlns:inkscape="http://www.inkscape.org/namespaces/inkscape" xmlns:inkscape="http://www.inkscape.org/namespaces/inkscape" inkscape:showpageshadow="2" inkscape:pageopacity="0.0" inkscape:pagecheckerboard="0" inkscape:deskcolor="#d1d1d1">
    <page x="0" y="0" inkscape:label="1" id="page1" width="698.93335" height="187.21333" margin="0" bleed="0"></page>
  </namedview>
  <g id="g1" xmlns:inkscape="http://www.inkscape.org/namespaces/inkscape" xmlns:inkscape="http://www.inkscape.org/namespaces/inkscape" inkscape:groupmode="layer" inkscape:label="1">
    <g id="group-R5">
      <path id="path2" d="m 2995.37,637.926 c 0,-63.91 -38.35,-112.59 -107.91,-112.59 -69.42,0 -107.84,48.68 -107.84,112.59 0,60.504 38.42,110.863 107.84,110.863 69.56,0 107.91,-50.359 107.91,-110.863 z m 157.37,160.531 c 0,37.773 -32.22,68.082 -78.61,68.082 -38.27,0 -62.61,-21.887 -73.55,-42.055 -35.28,36.086 -75.62,50.477 -135.24,50.477 -137.08,0 -243.01,-105.051 -243.01,-237.035 0,-118.559 75.62,-228.778 228,-228.778 52.36,0 108.91,10.18 143.13,50.598 h 1.91 c 0,-73.176 -33.21,-116.035 -131.03,-116.035 -91.92,0 -121,38.66 -166.39,38.66 -31.31,0 -65.59,-27.723 -65.59,-57.109 0,-71.481 153.3,-97.582 235.12,-97.582 154.23,0 285.26,63.058 285.26,230.218 v 340.559 0" style="fill:#231f20;fill-opacity:1;fill-rule:evenodd;stroke:none" transform="matrix(0.13333333,0,0,-0.13333333,0,187.21333)"></path>
      <path id="path3" d="m 3594.89,684.996 c 0,29.313 40.42,78.984 102.04,78.984 61.6,0 101.87,-49.671 101.87,-78.984 h -203.91 z m 284.73,-89.93 c 50.28,0 76.45,10.872 76.45,57.012 0,114.387 -99.8,222.883 -255.17,222.883 -161.34,0 -275.23,-110.981 -275.23,-237.035 0,-132.028 105.78,-237.035 275.23,-237.035 119.1,0 247.14,42.011 247.14,105.922 0,33.519 -30.3,56.179 -65.59,56.179 -36.21,0 -83.65,-41.027 -161.42,-41.027 -100.72,0 -126.14,45.316 -126.14,73.101 h 284.73 v 0" style="fill:#231f20;fill-opacity:1;fill-rule:evenodd;stroke:none" transform="matrix(0.13333333,0,0,-0.13333333,0,187.21333)"></path>
      <path id="path4" d="m 4812.99,748.789 c 69.58,0 107.93,-50.359 107.93,-110.863 0,-60.547 -38.35,-110.91 -107.93,-110.91 -69.64,0 -108.06,50.363 -108.06,110.91 0,60.504 38.42,110.863 108.06,110.863 z m 265.29,49.668 c 0,37.773 -32.23,68.082 -78.76,68.082 -38.35,0 -62.62,-21.887 -73.56,-42.055 -35.43,36.086 -75.7,50.477 -135.17,50.477 -137.3,0 -243.08,-105.051 -243.08,-237.035 0,-132.028 105.78,-237.035 243.08,-237.035 59.47,0 99.74,14.23 135.17,50.355 10.94,-20.047 35.21,-42.098 73.56,-42.098 46.53,0 78.76,30.395 78.76,68.274 v 321.035 0" style="fill:#231f20;fill-opacity:1;fill-rule:evenodd;stroke:none" transform="matrix(0.13333333,0,0,-0.13333333,0,187.21333)"></path>
      <path id="path5" d="m 1577.82,477.422 c 0,-37.879 32.07,-68.274 78.52,-68.274 46.54,0 78.69,30.395 78.69,68.274 v 207.574 c 0,45.309 32.37,78.984 86.71,78.984 54.5,0 86.8,-33.675 86.8,-78.984 V 477.422 c 0,-37.879 32.3,-68.274 78.61,-68.274 46.45,0 78.67,30.395 78.67,68.274 v 242.82 c 0,107.61 -86.64,154.719 -195.71,154.719 -60.38,0 -100.72,-15.996 -133.02,-32.832 h -2.06 v 151.316 c 0,37.845 -32.15,68.075 -78.69,68.075 -46.45,0 -78.52,-30.23 -78.52,-68.075 v -516.023 0" style="fill:#231f20;fill-opacity:1;fill-rule:nonzero;stroke:none" transform="matrix(0.13333333,0,0,-0.13333333,0,187.21333)"></path>
      <path id="path6" d="m 2217.4,358.871 c -18.06,-34.531 -26.09,-49.68 -26.09,-72.25 0,-21.902 21.12,-58.941 77.61,-58.941 54.41,0 67.5,27.781 85.64,62.3 l 232.98,452.993 c 8.11,15.078 19.22,37.843 19.22,57.129 0,40.382 -32.23,66.437 -80.67,66.437 -43.32,0 -65.59,-31.148 -85.66,-71.406 l -87.86,-178.254 -92.76,200.066 c -15.23,32.684 -42.41,49.594 -80.6,49.594 -39.41,0 -76.84,-22.805 -76.84,-61.266 0,-15.195 15.31,-46.382 33.37,-81.585 l 134.02,-266.622 -52.36,-98.195 v 0" style="fill:#231f20;fill-opacity:1;fill-rule:nonzero;stroke:none" transform="matrix(0.13333333,0,0,-0.13333333,0,187.21333)"></path>
      <path id="path7" d="m 3204.66,983.414 c 0,-43.734 42.33,-78.219 93.77,-78.219 51.43,0 93.83,34.485 93.83,78.219 0,43.666 -42.4,78.106 -93.83,78.106 -51.44,0 -93.77,-34.44 -93.77,-78.106 z m 15.17,-505.992 c 0,-37.879 32.14,-68.274 78.6,-68.274 46.39,0 78.68,30.395 78.68,68.274 v 321.035 c 0,37.773 -32.29,68.082 -78.68,68.082 -46.46,0 -78.6,-30.309 -78.6,-68.082 v -321.035 0" style="fill:#231f20;fill-opacity:1;fill-rule:evenodd;stroke:none" transform="matrix(0.13333333,0,0,-0.13333333,0,187.21333)"></path>
      <path id="path8" d="m 4007.78,477.422 c 0,-37.879 32.3,-68.274 78.76,-68.274 46.38,0 78.52,30.395 78.52,68.274 v 207.574 c 0,45.309 32.31,78.984 86.87,78.984 54.42,0 86.8,-33.675 86.8,-78.984 V 477.422 c 0,-37.879 32.14,-68.274 78.53,-68.274 46.31,0 78.75,30.395 78.75,68.274 v 242.82 c 0,107.61 -86.79,154.719 -195.78,154.719 -67.5,0 -109.99,-17.641 -135.17,-50.477 -10.03,19.25 -36.2,42.055 -78.52,42.055 -46.46,0 -78.76,-30.309 -78.76,-68.082 v -321.035 0" style="fill:#231f20;fill-opacity:1;fill-rule:nonzero;stroke:none" transform="matrix(0.13333333,0,0,-0.13333333,0,187.21333)"></path>
      <path id="path9" d="m 729.984,589.609 v -9.461 c 0,-57.152 -51.648,-103.515 -115.332,-103.515 h -31.609 c -63.645,0 -115.301,46.363 -115.301,103.515 v 9.461 c 0,57.141 51.656,103.504 115.301,103.504 h 23.285 c 61.352,0 93.985,15.598 94.902,103.442 v 3.703 5.582 c 0,57.215 51.583,103.582 115.336,103.582 h 16.715 c 63.754,0 115.371,-46.367 115.371,-103.582 v -9.285 c 0,-57.157 -51.617,-103.442 -115.371,-103.442 h -9.91 c -57.93,0 -90.215,-13.902 -94.41,-89.398 0.633,-4.66 1.023,-9.317 1.023,-14.106 z M 1270.2,1114.26 c 0,-0.36 0.07,-0.88 0.07,-1.24 V 796.555 c 0,-57.157 -51.62,-103.442 -115.33,-103.442 h -9.96 c -57.92,0 -90.21,-13.902 -94.4,-89.398 0.7,-4.66 1.02,-9.317 1.02,-14.106 v -316.82 c 0,-57.09 -51.58,-103.379 -115.33,-103.379 h -31.614 c -63.648,0 -115.367,46.289 -115.367,103.379 v 316.82 c 0,57.141 51.719,103.504 115.367,103.504 h 23.285 c 61.422,0 94.019,15.598 94.909,103.442 v 3.703 312.762 c 0,57.16 51.57,103.51 115.32,103.51 h 16.77 c 9.7,0 19.08,-1.19 28.08,-3.24 -125.67,118.25 -294.836,190.76 -480.977,190.76 C 314.273,1404.05 0,1089.73 0,702.039 0,538.664 55.8086,388.359 149.305,269.191 c -0.035,1.2 -0.145,2.469 -0.145,3.598 v 316.82 c 0,57.141 51.621,103.504 115.34,103.504 h 23.281 c 61.317,0 93.949,15.598 94.762,103.442 l 0.141,3.703 -0.141,312.762 c 0,57.16 51.723,103.51 115.434,103.51 h 16.726 c 63.68,0 115.406,-46.35 115.406,-103.51 V 796.555 c 0,-57.157 -51.726,-103.442 -115.406,-103.442 h -9.984 c -57.93,0 -90.211,-13.902 -94.371,-89.398 0.703,-4.66 1.054,-9.317 1.054,-14.106 v -316.82 c 0,-57.09 -51.613,-103.379 -115.297,-103.379 H 264.5 c -7.48,0 -14.895,0.641 -21.945,1.84 C 365.641,64.4883 526.277,0 702.043,0 c 387.697,0 702.007,314.27 702.007,702.039 0,154.035 -49.71,296.465 -133.85,412.221" style="fill:#231f20;fill-opacity:1;fill-rule:nonzero;stroke:none" transform="matrix(0.13333333,0,0,-0.13333333,0,187.21333)"></path>
      <path id="path10" d="m 5160.36,911.703 c 12.76,0 16.94,3.965 16.94,12.762 0,7.258 -6.16,11.437 -18.7,11.437 h -15.63 v -24.199 z m -0.44,38.504 c 23.98,0 35.64,-8.359 35.64,-27.285 0,-14.52 -8.13,-23.32 -24.2,-24.637 L 5196,858.012 h -19.14 l -22.44,39.394 h -11.45 v -39.394 h -18.26 v 92.195 z m -2.43,-111.113 c 34.12,0 62.06,27.062 62.06,64.902 0,36.094 -26.4,64.473 -62.27,64.473 -34.1,0 -61.83,-26.844 -61.83,-64.473 0,-36.738 26.62,-64.902 62.04,-64.902 z m 84.5,64.902 c 0,-49.941 -39.39,-82.508 -84.5,-82.508 -44.88,0 -84.49,32.567 -84.49,82.508 0,49.953 40.05,82.082 84.49,82.082 44.9,0 84.5,-32.344 84.5,-82.082" style="fill:#231f20;fill-opacity:1;fill-rule:nonzero;stroke:none" transform="matrix(0.13333333,0,0,-0.13333333,0,187.21333)"></path>
    </g>
  </g>
</svg>